<svg width="1390" height="1390" viewBox="0 0 1390 1390" fill="none" xmlns="http://www.w3.org/2000/svg">
<path d="M536.643 662.75C586.775 705.221 620.146 735.817 627.136 770.313C634.588 593.733 724.03 507.606 827.616 467.628C755.4 450.155 700.724 445.378 662.733 458.136C658.215 459.936 653.738 461.756 649.008 463.431C634.104 468.717 618.921 473.271 603.638 477.355C591.322 480.647 578.944 483.681 566.535 486.145C517.311 495.924 468.346 498.967 421.36 495.476C409.989 494.632 398.766 493.321 387.655 491.714C392.735 502.179 398.343 512.057 404.221 521.617C440.994 581.429 491.68 624.66 536.643 662.75Z" fill="url(#paint0_linear_530_482)"/>
<path d="M627.26 770.312C620.267 735.813 586.899 705.221 536.767 662.75C491.805 624.659 441.121 581.428 404.342 521.619C398.464 512.06 392.856 502.181 387.776 491.717C339.722 484.769 294.247 470.81 253.379 449.887L231.997 438.945L233.28 463.018C237.294 538.252 320.56 674.838 447.031 726.363C540.657 756.51 604.567 780.944 615.351 803.394C616.983 806.776 619.725 813.05 616.502 821.585C612.363 832.263 623.297 814.989 626.626 799.774C626.529 789.618 626.853 779.92 627.26 770.312Z" fill="url(#paint1_linear_530_482)"/>
<path d="M566.657 486.145C579.066 483.681 591.444 480.647 603.76 477.355C619.043 473.274 634.226 468.716 649.13 463.431C653.86 461.753 658.339 459.933 662.854 458.136C577.299 450.476 479.755 422.29 377.266 310.219L354.255 285.054L353.252 319.205C351.187 389.025 365.132 445.069 387.774 491.714C398.888 493.321 410.111 494.632 421.478 495.476C468.468 498.967 517.432 495.923 566.657 486.145Z" fill="url(#paint2_linear_530_482)"/>
<path d="M920.824 649.226L923.296 649.278C938.085 505.133 850.385 472.428 827.743 467.629C724.16 507.606 634.719 593.733 627.264 770.313C626.193 821.126 591.956 909.517 411.979 1104.95C444.279 1098.29 455.541 1092.2 455.541 1092.2C582.58 1055.05 862.929 902.219 918.701 666.867C920.137 660.806 921.802 655.246 923.389 649.516L923.443 649.349L920.853 649.226H920.824Z" fill="url(#paint3_linear_530_482)"/>
<path d="M1147.72 427.719C1145.21 422.636 1084.37 303.357 954.821 313.48C944.826 314.263 934.886 315.622 925.288 317.529C868.522 328.805 826.929 357.922 782.919 388.746C747.486 413.547 710.822 439.044 662.848 458.137C700.837 445.379 755.512 450.156 827.731 467.629C978.2 409.556 1158 448.468 1158 448.468L1147.72 427.719Z" fill="url(#paint4_linear_530_482)"/>
<path d="M920.847 649.226L923.307 649.278L920.818 649.226H920.847Z" fill="#0199FF"/>
<path d="M920.847 649.226L923.307 649.278L920.818 649.226H920.847Z" fill="url(#paint5_linear_530_482)"/>
<path d="M827.69 467.599C828.613 467.796 829.678 468.056 830.807 468.35C832.869 468.878 834.863 469.477 836.793 470.15C867.625 480.505 936.48 520.213 923.243 649.248L920.8 649.197L921.912 649.248L923.391 649.319C964.56 500.981 1054.99 461.148 1106.58 450.899C1123.64 447.51 1134.76 447.784 1134.76 447.784L1157.96 448.441C1157.96 448.438 978.159 409.526 827.69 467.599Z" fill="#0199FF"/>
<defs>
<linearGradient id="paint0_linear_530_482" x1="419.452" y1="609.029" x2="785.985" y2="611.337" gradientUnits="userSpaceOnUse">
<stop stop-color="#15C1FF"/>
<stop offset="1" stop-color="#0049E9"/>
</linearGradient>
<linearGradient id="paint1_linear_530_482" x1="219.68" y1="453.82" x2="595.53" y2="764.794" gradientUnits="userSpaceOnUse">
<stop stop-color="#B3A9FF"/>
<stop offset="1" stop-color="#3300BF"/>
</linearGradient>
<linearGradient id="paint2_linear_530_482" x1="359.528" y1="405.652" x2="641.58" y2="350.123" gradientUnits="userSpaceOnUse">
<stop stop-color="#2BF497"/>
<stop offset="1" stop-color="#08B4E5"/>
</linearGradient>
<linearGradient id="paint3_linear_530_482" x1="485.265" y1="1001.99" x2="961.607" y2="492.004" gradientUnits="userSpaceOnUse">
<stop stop-color="#FF55EC"/>
<stop offset="1" stop-color="#0049E9"/>
</linearGradient>
<linearGradient id="paint4_linear_530_482" x1="741.394" y1="442.652" x2="1148.91" y2="362.421" gradientUnits="userSpaceOnUse">
<stop stop-color="#3FFFFC"/>
<stop offset="1" stop-color="#014FFF"/>
</linearGradient>
<linearGradient id="paint5_linear_530_482" x1="652.652" y1="324.824" x2="974.709" y2="709.591" gradientUnits="userSpaceOnUse">
<stop stop-color="#94FFF7"/>
<stop offset="0.6882" stop-color="#0085BF"/>
<stop offset="1" stop-color="#0056BF"/>
</linearGradient>
</defs>
</svg>
