<svg width="25" height="23" viewBox="0 0 25 23" fill="none" xmlns="http://www.w3.org/2000/svg">
    <g style="mix-blend-mode:screen">
        <path
            d="M11.4905 5.10166C9.24216 4.90111 6.67901 4.16398 3.98599 1.23753L3.38106 0.580078L3.35467 1.47231C3.30038 3.29639 3.667 4.76058 4.26224 5.97922C4.55443 6.02121 4.84948 6.05546 5.14832 6.07751C5.16344 6.07862 5.17856 6.07971 5.1937 6.08078C5.17738 6.07963 5.16107 6.07846 5.14477 6.07725C4.84584 6.05521 4.55079 6.02096 4.25869 5.97897C4.39222 6.25237 4.53966 6.51045 4.69418 6.7602C5.66093 8.32284 6.99346 9.45229 8.17552 10.4474C9.49347 11.557 10.3708 12.3563 10.5546 13.2576C10.7505 8.64429 13.1018 6.39416 15.8251 5.34971C14.5556 5.04445 13.4922 4.88751 12.6284 4.91669C13.4928 4.88704 14.5571 5.04399 15.8282 5.3496C19.784 3.8324 24.5109 4.849 24.5109 4.849L24.2407 4.30692C24.1746 4.17413 22.5751 1.05786 19.1693 1.32234C18.9066 1.34278 18.6452 1.3783 18.3929 1.42811C16.9006 1.72272 15.8071 2.48342 14.6501 3.28872C13.722 3.93427 12.7618 4.59786 11.5075 5.09608C11.5018 5.09792 11.4962 5.09979 11.4905 5.10166Z"
            fill="#F9FBFC" />
        <path
            d="M18.2769 10.094L18.3405 10.0953C18.7293 6.32944 16.4237 5.47499 15.8285 5.34961C13.1053 6.39406 10.754 8.64419 10.558 13.2575C10.5298 14.585 9.62974 16.8943 4.89824 22C5.74739 21.8262 6.04345 21.6671 6.04345 21.6671C9.38325 20.6965 16.7535 16.7036 18.2197 10.5549C18.248 10.4366 18.2795 10.3256 18.3111 10.2146L18.3112 10.214C18.3219 10.1766 18.3325 10.1392 18.343 10.1016L18.3444 10.0972L18.2769 10.094Z"
            fill="#F9FBFC" />
        <path
            d="M11.4905 5.10166C9.24216 4.90111 6.67901 4.16398 3.98599 1.23753L3.38106 0.580078L3.35467 1.47231C3.30038 3.29639 3.667 4.76058 4.26224 5.97922C4.55443 6.02121 4.84948 6.05546 5.14832 6.07751C5.16344 6.07862 5.17856 6.07971 5.1937 6.08078C5.17738 6.07963 5.16107 6.07846 5.14477 6.07725C4.84584 6.05521 4.55079 6.02096 4.25869 5.97897C4.39222 6.25237 4.53966 6.51045 4.69418 6.7602C5.66093 8.32284 6.99346 9.45229 8.17552 10.4474C9.49347 11.557 10.3708 12.3563 10.5546 13.2576C10.7505 8.64429 13.1018 6.39416 15.8251 5.34971C14.5556 5.04445 13.4922 4.88751 12.6284 4.91669C13.4928 4.88704 14.5571 5.04399 15.8282 5.3496C19.784 3.8324 24.5109 4.849 24.5109 4.849L24.2407 4.30692C24.1746 4.17413 22.5751 1.05786 19.1693 1.32234C18.9066 1.34278 18.6452 1.3783 18.3929 1.42811C16.9006 1.72272 15.8071 2.48342 14.6501 3.28872C13.722 3.93427 12.7618 4.59786 11.5075 5.09608C11.5018 5.09792 11.4962 5.09979 11.4905 5.10166Z"
            stroke="#F9FBFC" stroke-width="0.0266663" />
        <path
            d="M18.2769 10.094L18.3405 10.0953C18.7293 6.32944 16.4237 5.47499 15.8285 5.34961C13.1053 6.39406 10.754 8.64419 10.558 13.2575C10.5298 14.585 9.62974 16.8943 4.89824 22C5.74739 21.8262 6.04345 21.6671 6.04345 21.6671C9.38325 20.6965 16.7535 16.7036 18.2197 10.5549C18.248 10.4366 18.2795 10.3256 18.3111 10.2146L18.3112 10.214C18.3219 10.1766 18.3325 10.1392 18.343 10.1016L18.3444 10.0972L18.2769 10.094Z"
            stroke="#F9FBFC" stroke-width="0.0266663" />
    </g>
    <g opacity="0.75">
        <path
            d="M15.9088 5.36848C15.8792 5.36083 15.8512 5.35401 15.8269 5.34888C19.7827 3.83168 24.5096 4.84828 24.5095 4.84836L23.8997 4.8312C23.8997 4.8312 23.6072 4.82404 23.1587 4.91257C21.8025 5.18033 19.4251 6.22099 18.3428 10.0965L18.304 10.0946L18.2747 10.0933L18.3389 10.0946C18.6869 6.72344 16.8768 5.68606 16.0662 5.41552C16.0155 5.39794 15.963 5.38228 15.9088 5.36848Z"
            fill="#FAFBFC" />
        <path
            d="M8.1788 10.4475C9.49675 11.557 10.374 12.3563 10.5578 13.2576C10.5471 13.5086 10.5386 13.762 10.5411 14.0273C10.4536 14.4248 10.1662 14.8761 10.275 14.5972C10.3597 14.3742 10.2877 14.2102 10.2447 14.1219C9.96124 13.5354 8.28106 12.897 5.81966 12.1094C2.49479 10.7633 0.305767 7.19487 0.200224 5.22933L0.166504 4.6004L0.728616 4.88625C1.80302 5.43288 2.99856 5.79758 4.26188 5.97909C4.39542 6.25249 4.54286 6.51057 4.69738 6.76032C5.6643 8.32288 6.99675 9.45232 8.1788 10.4475Z"
            fill="#FAFBFC" />
    </g>
</svg>
