<svg width="1736" height="680" viewBox="0 0 1736 680" fill="none" xmlns="http://www.w3.org/2000/svg">
<path d="M322.378 298.869C347.453 320.113 364.145 335.416 367.641 352.671C371.369 264.348 416.106 221.268 467.918 201.272C431.797 192.532 404.449 190.142 385.446 196.524C383.186 197.424 380.947 198.335 378.581 199.172C371.126 201.816 363.532 204.094 355.888 206.137C349.727 207.783 343.536 209.301 337.329 210.534C312.708 215.425 288.216 216.947 264.714 215.201C259.027 214.779 253.413 214.123 247.856 213.319C250.397 218.553 253.202 223.495 256.142 228.276C274.535 258.193 299.888 279.817 322.378 298.869Z" fill="url(#paint0_linear_530_482)"/>
<path d="M367.703 352.67C364.205 335.414 347.515 320.112 322.44 298.869C299.95 279.817 274.599 258.193 256.202 228.277C253.262 223.496 250.457 218.555 247.916 213.32C223.88 209.845 201.134 202.863 180.692 192.398L169.998 186.925L170.639 198.966C172.647 236.597 214.296 304.915 277.555 330.687C324.385 345.767 356.352 357.988 361.746 369.217C362.563 370.909 363.934 374.047 362.322 378.316C360.251 383.657 365.721 375.017 367.386 367.406C367.337 362.327 367.499 357.476 367.703 352.67Z" fill="url(#paint1_linear_530_482)"/>
<path d="M337.39 210.533C343.597 209.301 349.788 207.783 355.948 206.137C363.593 204.096 371.187 201.816 378.642 199.172C381.008 198.333 383.248 197.423 385.507 196.524C342.713 192.693 293.923 178.594 242.659 122.538L231.149 109.95L230.647 127.032C229.614 161.955 236.59 189.988 247.915 213.319C253.474 214.123 259.088 214.779 264.773 215.201C288.277 216.947 312.768 215.425 337.39 210.533Z" fill="url(#paint2_linear_530_482)"/>
<path d="M514.54 292.105L515.776 292.13C523.173 220.031 479.307 203.672 467.982 201.272C416.171 221.268 371.434 264.348 367.705 352.671C367.169 378.087 350.044 422.299 260.022 520.05C276.178 516.723 281.811 513.676 281.811 513.676C345.354 495.094 485.581 418.648 513.478 300.928C514.196 297.896 515.029 295.116 515.823 292.25L515.85 292.166L514.554 292.105H514.54Z" fill="url(#paint3_linear_530_482)"/>
<path d="M628.031 181.31C626.774 178.767 596.343 119.105 531.544 124.169C526.545 124.56 521.573 125.24 516.773 126.194C488.379 131.834 467.575 146.398 445.561 161.816C427.838 174.221 409.499 186.974 385.503 196.524C404.505 190.143 431.853 192.532 467.976 201.272C543.238 172.225 633.174 191.688 633.174 191.688L628.031 181.31Z" fill="url(#paint4_linear_530_482)"/>
<path d="M514.552 292.104L515.782 292.13L514.537 292.104H514.552Z" fill="#0199FF"/>
<path d="M514.552 292.104L515.782 292.13L514.537 292.104H514.552Z" fill="url(#paint5_linear_530_482)"/>
<path d="M467.955 201.257C468.417 201.355 468.949 201.486 469.514 201.632C470.545 201.897 471.543 202.196 472.509 202.533C487.93 207.713 522.37 227.574 515.75 292.116L514.527 292.09L515.084 292.116L515.823 292.151C536.416 217.954 581.647 198.03 607.451 192.904C615.983 191.209 621.549 191.346 621.549 191.346L633.151 191.675C633.153 191.673 543.218 172.21 467.955 201.257Z" fill="#0199FF"/>
<path d="M1546 359.862L1545.99 359.842C1545.99 326.654 1519.12 299.653 1486.08 299.653H1440.94V321.033H1486.08C1507.01 321.033 1524.01 337.868 1524.6 358.756C1518.65 355.425 1511.91 353.361 1504.63 353.359V353.357H1467.52V353.359C1444.71 353.361 1426.15 372.005 1426.15 394.919V407.698C1426.15 430.609 1444.71 449.254 1467.52 449.257H1504.63C1526.84 449.256 1544.88 431.538 1545.82 409.453L1546 359.862ZM1504.62 427.877H1467.52C1456.44 427.875 1447.44 418.824 1447.44 407.699V394.92C1447.44 383.794 1456.44 374.745 1467.52 374.741V374.74H1504.62V374.741C1515.7 374.743 1524.71 383.794 1524.71 394.92H1524.72V407.699H1524.71C1524.71 418.826 1515.7 427.875 1504.62 427.877Z" fill="#0D3C61"/>
<path d="M1400.1 253.49H1378.89V274.799H1400.1V253.49Z" fill="#0D3C61"/>
<path d="M700.118 274.557V274.554H734.522V253.214H700.118V253.218C661.27 253.218 629.667 284.956 629.667 323.978V323.983V378.259H629.664V378.264C629.664 417.285 661.267 449.024 700.115 449.024V449.026H734.518V427.686H700.115V427.684C672.982 427.684 650.909 405.511 650.909 378.264L650.913 378.26V378.259V323.983V323.978C650.913 296.729 672.988 274.557 700.118 274.557Z" fill="#0D3C61"/>
<path d="M1185.04 299.654C1152.11 299.654 1125.31 326.564 1125.31 359.641V388.768V496.784H1146.52V434.547C1156.93 443.392 1170.36 448.753 1185.03 448.753C1217.96 448.753 1244.75 421.844 1244.75 388.767V359.639C1244.75 326.564 1217.97 299.654 1185.04 299.654ZM1223.54 388.768C1223.54 410.098 1206.26 427.447 1185.03 427.447C1163.79 427.447 1146.52 410.098 1146.52 388.768V359.641C1146.52 338.311 1163.8 320.962 1185.04 320.962C1206.27 320.962 1223.54 338.311 1223.54 359.641V388.768Z" fill="#0D3C61"/>
<path d="M1400.1 299.654H1378.89V448.702H1400.1V299.654Z" fill="#0D3C61"/>
<path d="M937.471 253.232H916.258V449.006H937.471V253.232Z" fill="#0D3C61"/>
<path d="M1314.39 389.387V320.819H1349.03V299.513H1314.39V253.49H1293.18V299.513H1271.71V320.82H1293.18V389.388C1293.18 422.464 1319.96 449.377 1352.89 449.377H1352.9V428.067H1352.89C1331.66 428.066 1314.39 410.717 1314.39 389.387Z" fill="#0D3C61"/>
<path d="M881.376 359.736L881.366 359.716C881.366 326.528 854.493 299.526 821.452 299.526H776.313V320.907H821.452C842.385 320.907 859.386 337.742 859.973 358.63C854.023 355.299 847.278 353.234 839.997 353.233V353.231H802.892V353.233C780.086 353.234 761.525 371.879 761.525 394.793V407.571C761.525 430.483 780.086 449.128 802.892 449.131H839.997C862.211 449.13 880.252 431.412 881.191 409.327L881.376 359.736ZM839.997 427.749H802.892C791.818 427.747 782.811 418.696 782.811 407.571V394.793C782.811 383.666 791.818 374.615 802.892 374.614V374.612H839.997V374.614C851.071 374.615 860.083 383.666 860.083 394.793H860.088V407.571H860.083C860.083 418.698 851.073 427.747 839.997 427.749Z" fill="#0D3C61"/>
<path d="M1091.72 299.905H1070.5V388.766H1070.51V388.768C1070.51 410.098 1053.24 427.447 1032 427.447C1010.77 427.447 993.492 410.098 993.492 388.768L993.49 388.766V299.905H972.275V388.766L972.277 388.768C972.277 421.844 999.074 448.755 1032 448.755C1046.67 448.755 1060.1 443.392 1070.5 434.549V436.799C1070.5 458.129 1053.24 475.478 1032 475.478H987.015V496.786H1032C1064.93 496.786 1091.72 469.875 1091.72 436.799L1091.72 299.905Z" fill="#0D3C61"/>
<defs>
<linearGradient id="paint0_linear_530_482" x1="263.76" y1="271.999" x2="447.095" y2="273.153" gradientUnits="userSpaceOnUse">
<stop stop-color="#15C1FF"/>
<stop offset="1" stop-color="#0049E9"/>
</linearGradient>
<linearGradient id="paint1_linear_530_482" x1="163.836" y1="194.365" x2="351.832" y2="349.91" gradientUnits="userSpaceOnUse">
<stop stop-color="#B3A9FF"/>
<stop offset="1" stop-color="#3300BF"/>
</linearGradient>
<linearGradient id="paint2_linear_530_482" x1="233.787" y1="170.272" x2="374.865" y2="142.497" gradientUnits="userSpaceOnUse">
<stop stop-color="#2BF497"/>
<stop offset="1" stop-color="#08B4E5"/>
</linearGradient>
<linearGradient id="paint3_linear_530_482" x1="296.679" y1="468.551" x2="534.939" y2="213.464" gradientUnits="userSpaceOnUse">
<stop stop-color="#FF55EC"/>
<stop offset="1" stop-color="#0049E9"/>
</linearGradient>
<linearGradient id="paint4_linear_530_482" x1="424.791" y1="188.779" x2="628.624" y2="148.648" gradientUnits="userSpaceOnUse">
<stop stop-color="#3FFFFC"/>
<stop offset="1" stop-color="#014FFF"/>
</linearGradient>
<linearGradient id="paint5_linear_530_482" x1="380.404" y1="129.843" x2="541.493" y2="322.298" gradientUnits="userSpaceOnUse">
<stop stop-color="#94FFF7"/>
<stop offset="0.6882" stop-color="#0085BF"/>
<stop offset="1" stop-color="#0056BF"/>
</linearGradient>
</defs>
</svg>
