<svg width="209" height="66" viewBox="0 0 209 66" fill="none" xmlns="http://www.w3.org/2000/svg">
    <path
        d="M24.4322 30.4453C28.4527 33.8097 31.1289 36.2333 31.6896 38.9659C32.2872 24.978 39.4602 18.1554 47.7676 14.9885C41.9761 13.6044 37.5912 13.2259 34.5443 14.2366C34.1819 14.3792 33.823 14.5234 33.4437 14.656C32.2484 15.0747 31.0307 15.4355 29.8051 15.759C28.8173 16.0198 27.8246 16.2602 26.8295 16.4554C22.8818 17.23 18.9549 17.4711 15.1867 17.1945C14.2748 17.1277 13.3748 17.0238 12.4836 16.8965C12.891 17.7255 13.3408 18.508 13.8122 19.2653C16.7613 24.0033 20.8262 27.4279 24.4322 30.4453Z"
        fill="url(#paint0_linear_3_11658)" />
    <path
        d="M31.6994 38.966C31.1385 36.2331 28.4625 33.8097 24.442 30.4453C20.836 27.428 16.7714 24.0034 13.8217 19.2655C13.3504 18.5083 12.9005 17.7258 12.4932 16.8968C8.63938 16.3464 4.99229 15.2406 1.71475 13.5832L0 12.7165L0.102866 14.6234C0.424831 20.5832 7.10256 31.4029 17.2453 35.4845C24.7539 37.8726 29.8795 39.8082 30.7443 41.5866C30.8751 41.8545 31.095 42.3515 30.8366 43.0277C30.5046 43.8734 31.3815 42.5051 31.6485 41.2998C31.6407 40.4953 31.6667 39.7271 31.6994 38.966Z"
        fill="url(#paint1_linear_3_11658)" />
    <path
        d="M26.8391 16.4553C27.8343 16.2602 28.827 16.0198 29.8147 15.759C31.0404 15.4358 32.258 15.0747 33.4533 14.6561C33.8326 14.5231 34.1919 14.379 34.5539 14.2366C27.6926 13.6298 19.8697 11.397 11.6503 2.51924L9.80489 0.525772L9.72443 3.2311C9.55883 8.76189 10.6773 13.2014 12.4931 16.8965C13.3843 17.0238 14.2844 17.1277 15.196 17.1945C18.9646 17.4711 22.8914 17.23 26.8391 16.4553Z"
        fill="url(#paint2_linear_3_11658)" />
    <path
        d="M55.2422 29.374L55.4404 29.3781C56.6265 17.9595 49.5931 15.3687 47.7773 14.9886C39.4701 18.1554 32.2971 24.9781 31.6992 38.966C31.6133 42.9912 28.8676 49.9931 14.4338 65.4742C17.0243 64.9473 17.9274 64.4648 17.9274 64.4648C28.1157 61.5219 50.5991 49.415 55.0719 30.7714C55.1871 30.2912 55.3206 29.8508 55.4479 29.397L55.4523 29.3837L55.2445 29.374H55.2422Z"
        fill="url(#paint3_linear_3_11658)" />
    <path
        d="M73.4398 11.827C73.2381 11.4244 68.359 1.97549 57.9694 2.77742C57.1678 2.83941 56.3706 2.94709 55.601 3.09813C51.0484 3.9914 47.7127 6.29793 44.1832 8.73965C41.3415 10.7043 38.4011 12.724 34.5537 14.2365C37.6003 13.2259 41.9852 13.6043 47.7771 14.9885C59.8444 10.3882 74.2642 13.4706 74.2642 13.4706L73.4398 11.827Z"
        fill="url(#paint4_linear_3_11658)" />
    <path d="M55.2445 29.3739L55.4406 29.378L55.2422 29.3739H55.2445Z" fill="#03C0FF" />
    <path d="M55.2445 29.3739L55.4406 29.378L55.2422 29.3739H55.2445Z" fill="url(#paint5_linear_3_11658)" />
    <path
        d="M47.7732 14.9863C47.8472 15.0019 47.9326 15.0225 48.0231 15.0457C48.1885 15.0876 48.3484 15.135 48.5032 15.1883C50.9759 16.0086 56.4979 19.1541 55.4363 29.3758L55.2404 29.3717L55.3296 29.3758L55.4482 29.3814C58.7499 17.6306 66.0021 14.4752 70.1393 13.6633C71.5075 13.3949 72.3998 13.4166 72.3998 13.4166L74.2601 13.4686C74.2604 13.4684 59.8405 10.3859 47.7732 14.9863Z"
        fill="#0199FF" />
    <g opacity="0.95" filter="url(#filter0_b_3_11658)">
        <path
            d="M208.203 42.2162L208.201 42.2132C208.201 37.246 204.13 33.2047 199.123 33.2047H192.283V36.4048H199.123C202.294 36.4048 204.871 38.9243 204.96 42.0507C204.058 41.5521 203.036 41.2431 201.933 41.2429V41.2426H196.311V41.2429C192.855 41.2431 190.043 44.0337 190.043 47.4631V49.3757C190.043 52.8049 192.855 55.5954 196.311 55.5959H201.933C205.299 55.5956 208.032 52.9439 208.175 49.6385L208.203 42.2162ZM201.933 52.3958H196.31C194.633 52.3956 193.268 51.0411 193.268 49.3759V47.4634C193.268 45.798 194.633 44.4437 196.31 44.4432V44.4429H201.933V44.4432C203.611 44.4434 204.976 45.798 204.976 47.4634H204.977V49.3759H204.976C204.976 51.0413 203.611 52.3956 201.933 52.3958Z"
            fill="#23323F" />
        <path d="M186.095 26.2956H182.881V29.4849H186.095V26.2956Z" fill="#23323F" />
        <path
            d="M80.0301 29.4487V29.4482H85.2431V26.2542H80.0301V26.2547C74.1436 26.2547 69.3551 31.005 69.3551 36.8454V36.8461V44.9695H69.3545V44.9703C69.3545 50.8105 74.1431 55.5609 80.0296 55.5609V55.5612H85.2422V52.3672H80.0296V52.367C75.9183 52.367 72.5737 49.0483 72.5737 44.9703L72.5742 44.9698V44.9695V36.8461V36.8454C72.5742 32.7671 75.9191 29.4487 80.0301 29.4487Z"
            fill="#23323F" />
        <path
            d="M153.507 33.2049C148.517 33.2049 144.457 37.2324 144.457 42.1831V46.5425V62.7091H147.671V53.3942C149.248 54.7179 151.283 55.5204 153.505 55.5204C158.495 55.5204 162.555 51.4929 162.555 46.5422V42.1828C162.555 37.2324 158.496 33.2049 153.507 33.2049ZM159.34 46.5425C159.34 49.7349 156.723 52.3316 153.505 52.3316C150.288 52.3316 147.671 49.7349 147.671 46.5425V42.1831C147.671 38.9907 150.289 36.3941 153.507 36.3941C156.724 36.3941 159.34 38.9907 159.34 42.1831V46.5425Z"
            fill="#23323F" />
        <path d="M186.095 33.2049H182.881V55.5127H186.095V33.2049Z" fill="#23323F" />
        <path d="M115.996 26.2571H112.781V55.5584H115.996V26.2571Z" fill="#23323F" />
        <path
            d="M173.108 46.6351V36.3726H178.356V33.1838H173.108V26.2956H169.894V33.1838H166.641V36.3728H169.894V46.6354C169.894 51.5857 173.952 55.6138 178.942 55.6138H178.943V52.4244H178.942C175.725 52.4241 173.108 49.8275 173.108 46.6351Z"
            fill="#23323F" />
        <path
            d="M107.496 42.1973L107.494 42.1942C107.494 37.2271 103.422 33.1858 98.4157 33.1858H91.5759V36.3859H98.4157C101.587 36.3859 104.164 38.9054 104.253 42.0318C103.351 41.5332 102.329 41.2242 101.226 41.224V41.2237H95.6029V41.224C92.1477 41.2242 89.335 44.0147 89.335 47.4441V49.3567C89.335 52.7859 92.1477 55.5764 95.6029 55.577H101.226C104.591 55.5768 107.325 52.9249 107.468 49.6195L107.496 42.1973ZM101.226 52.3767H95.6029C93.9255 52.3764 92.5607 51.0218 92.5607 49.3567V47.4441C92.5607 45.7788 93.9255 44.4243 95.6029 44.424V44.4238H101.226V44.424C102.903 44.4243 104.269 45.7788 104.269 47.4441H104.27V49.3567H104.269C104.269 51.0221 102.904 52.3764 101.226 52.3767Z"
            fill="#23323F" />
        <path
            d="M139.368 33.2425H136.153V46.5422V46.5426C136.153 49.735 133.537 52.3316 130.32 52.3316C127.102 52.3316 124.484 49.735 124.484 46.5426V46.5422V33.2425H121.27V46.5422V46.5426C121.27 51.4929 125.33 55.5206 130.319 55.5206C132.542 55.5206 134.576 54.7179 136.153 53.3944V53.7312C136.153 56.9236 133.537 59.5203 130.319 59.5203H123.503V62.7094H130.319C135.308 62.7094 139.368 58.6817 139.368 53.7312V33.2425Z"
            fill="#23323F" />
    </g>
    <defs>
        <filter id="filter0_b_3_11658" x="67.9114" y="24.8111" width="141.734" height="39.3414"
            filterUnits="userSpaceOnUse" color-interpolation-filters="sRGB">
            <feFlood flood-opacity="0" result="BackgroundImageFix" />
            <feGaussianBlur in="BackgroundImageFix" stdDeviation="0.721566" />
            <feComposite in2="SourceAlpha" operator="in" result="effect1_backgroundBlur_3_11658" />
            <feBlend mode="normal" in="SourceGraphic" in2="effect1_backgroundBlur_3_11658" result="shape" />
        </filter>
        <linearGradient id="paint0_linear_3_11658" x1="15.0338" y1="26.1897" x2="44.4288" y2="26.3771"
            gradientUnits="userSpaceOnUse">
            <stop stop-color="#15C1FF" />
            <stop offset="1" stop-color="#0049E9" />
        </linearGradient>
        <linearGradient id="paint1_linear_3_11658" x1="-0.987842" y1="13.8948" x2="28.8521" y2="38.8901"
            gradientUnits="userSpaceOnUse">
            <stop stop-color="#B3A9FF" />
            <stop offset="1" stop-color="#3300BF" />
        </linearGradient>
        <linearGradient id="paint2_linear_3_11658" x1="10.2278" y1="10.0791" x2="32.8267" y2="5.57468"
            gradientUnits="userSpaceOnUse">
            <stop stop-color="#2BF497" />
            <stop offset="1" stop-color="#08B4E5" />
        </linearGradient>
        <linearGradient id="paint3_linear_3_11658" x1="20.3112" y1="57.3182" x2="58.0105" y2="16.456"
            gradientUnits="userSpaceOnUse">
            <stop stop-color="#FF55EC" />
            <stop offset="1" stop-color="#0049E9" />
        </linearGradient>
        <linearGradient id="paint4_linear_3_11658" x1="40.8529" y1="13.0099" x2="73.5043" y2="6.5018"
            gradientUnits="userSpaceOnUse">
            <stop stop-color="#3FFFFC" />
            <stop offset="1" stop-color="#014FFF" />
        </linearGradient>
        <linearGradient id="paint5_linear_3_11658" x1="33.8687" y1="3.84986" x2="59.1488" y2="34.4447"
            gradientUnits="userSpaceOnUse">
            <stop stop-color="#94FFF7" />
            <stop offset="0.6882" stop-color="#0085BF" />
            <stop offset="1" stop-color="#0056BF" />
        </linearGradient>
    </defs>
</svg>
